<mxfile host="app.diagrams.net" agent="Mozilla/5.0 (Windows NT 10.0; Win64; x64) AppleWebKit/537.36 (KHTML, like Gecko) Chrome/131.0.0.0 Safari/537.36" version="26.0.6">
  <diagram name="Страница — 1" id="YBc_dfW4GbQZjzxW0Ta1">
    <mxGraphModel dx="2222" dy="650" grid="1" gridSize="10" guides="1" tooltips="1" connect="1" arrows="1" fold="1" page="1" pageScale="1" pageWidth="827" pageHeight="1169" math="0" shadow="0">
      <root>
        <mxCell id="0" />
        <mxCell id="1" parent="0" />
        <mxCell id="ZcSVCY-HChu_1TqKnKob-4" value="" style="rounded=0;whiteSpace=wrap;html=1;" vertex="1" parent="1">
          <mxGeometry x="940" y="320" width="240" height="1470" as="geometry" />
        </mxCell>
        <mxCell id="ZcSVCY-HChu_1TqKnKob-5" value="" style="rounded=0;whiteSpace=wrap;html=1;" vertex="1" parent="1">
          <mxGeometry x="700" y="320" width="240" height="1470" as="geometry" />
        </mxCell>
        <mxCell id="ZcSVCY-HChu_1TqKnKob-6" value="" style="rounded=0;whiteSpace=wrap;html=1;" vertex="1" parent="1">
          <mxGeometry x="460" y="320" width="240" height="1470" as="geometry" />
        </mxCell>
        <mxCell id="ZcSVCY-HChu_1TqKnKob-7" value="" style="rounded=0;whiteSpace=wrap;html=1;" vertex="1" parent="1">
          <mxGeometry x="220" y="320" width="240" height="1470" as="geometry" />
        </mxCell>
        <mxCell id="ZcSVCY-HChu_1TqKnKob-8" value="" style="rounded=0;whiteSpace=wrap;html=1;" vertex="1" parent="1">
          <mxGeometry x="-20" y="320" width="240" height="1470" as="geometry" />
        </mxCell>
        <mxCell id="ZcSVCY-HChu_1TqKnKob-9" value="" style="rounded=0;whiteSpace=wrap;html=1;" vertex="1" parent="1">
          <mxGeometry x="-260" y="320" width="240" height="1470" as="geometry" />
        </mxCell>
        <mxCell id="ZcSVCY-HChu_1TqKnKob-10" value="&amp;nbsp;Кассир" style="text;html=1;align=center;verticalAlign=middle;whiteSpace=wrap;rounded=0;" vertex="1" parent="1">
          <mxGeometry x="-170" y="340" width="60" height="30" as="geometry" />
        </mxCell>
        <mxCell id="ZcSVCY-HChu_1TqKnKob-11" value="&amp;nbsp;Продавец" style="text;html=1;align=center;verticalAlign=middle;whiteSpace=wrap;rounded=0;" vertex="1" parent="1">
          <mxGeometry x="70" y="340" width="60" height="30" as="geometry" />
        </mxCell>
        <mxCell id="ZcSVCY-HChu_1TqKnKob-12" value="Покупатель" style="text;html=1;align=center;verticalAlign=middle;whiteSpace=wrap;rounded=0;" vertex="1" parent="1">
          <mxGeometry x="310" y="340" width="60" height="30" as="geometry" />
        </mxCell>
        <mxCell id="ZcSVCY-HChu_1TqKnKob-13" value="Компания" style="text;html=1;align=center;verticalAlign=middle;whiteSpace=wrap;rounded=0;" vertex="1" parent="1">
          <mxGeometry x="550" y="340" width="60" height="30" as="geometry" />
        </mxCell>
        <mxCell id="ZcSVCY-HChu_1TqKnKob-14" value="Менеджер" style="text;html=1;align=center;verticalAlign=middle;whiteSpace=wrap;rounded=0;" vertex="1" parent="1">
          <mxGeometry x="790" y="340" width="60" height="30" as="geometry" />
        </mxCell>
        <mxCell id="ZcSVCY-HChu_1TqKnKob-15" value="&#xa;Государственные налоговые службы&#xa;&#xa;" style="text;html=1;align=center;verticalAlign=middle;whiteSpace=wrap;rounded=0;" vertex="1" parent="1">
          <mxGeometry x="1030" y="340" width="60" height="30" as="geometry" />
        </mxCell>
        <mxCell id="ZcSVCY-HChu_1TqKnKob-20" value="" style="ellipse;html=1;shape=startState;fillColor=#000000;strokeColor=#ff0000;" vertex="1" parent="1">
          <mxGeometry x="325" y="390" width="30" height="30" as="geometry" />
        </mxCell>
        <mxCell id="ZcSVCY-HChu_1TqKnKob-21" value="" style="edgeStyle=orthogonalEdgeStyle;html=1;verticalAlign=bottom;endArrow=open;endSize=8;strokeColor=#ff0000;rounded=0;" edge="1" source="ZcSVCY-HChu_1TqKnKob-20" parent="1">
          <mxGeometry relative="1" as="geometry">
            <mxPoint x="340" y="460" as="targetPoint" />
            <Array as="points">
              <mxPoint x="340" y="440" />
              <mxPoint x="340" y="440" />
            </Array>
          </mxGeometry>
        </mxCell>
        <mxCell id="ZcSVCY-HChu_1TqKnKob-36" style="edgeStyle=orthogonalEdgeStyle;rounded=0;orthogonalLoop=1;jettySize=auto;html=1;exitX=0;exitY=0.5;exitDx=0;exitDy=0;" edge="1" parent="1" source="ZcSVCY-HChu_1TqKnKob-23" target="ZcSVCY-HChu_1TqKnKob-28">
          <mxGeometry relative="1" as="geometry" />
        </mxCell>
        <mxCell id="ZcSVCY-HChu_1TqKnKob-23" value="покупатель подходит к кассе" style="html=1;whiteSpace=wrap;" vertex="1" parent="1">
          <mxGeometry x="285" y="470" width="110" height="50" as="geometry" />
        </mxCell>
        <mxCell id="ZcSVCY-HChu_1TqKnKob-24" value="кассир&lt;div&gt;вводит&amp;nbsp;идентификатор&lt;/div&gt;" style="html=1;whiteSpace=wrap;" vertex="1" parent="1">
          <mxGeometry x="-207.5" y="540" width="135" height="50" as="geometry" />
        </mxCell>
        <mxCell id="ZcSVCY-HChu_1TqKnKob-30" style="edgeStyle=orthogonalEdgeStyle;rounded=0;orthogonalLoop=1;jettySize=auto;html=1;exitX=0.5;exitY=1;exitDx=0;exitDy=0;entryX=0.5;entryY=0;entryDx=0;entryDy=0;" edge="1" parent="1" source="ZcSVCY-HChu_1TqKnKob-28" target="ZcSVCY-HChu_1TqKnKob-24">
          <mxGeometry relative="1" as="geometry" />
        </mxCell>
        <mxCell id="ZcSVCY-HChu_1TqKnKob-28" value="кассир открывает&amp;nbsp;&lt;div&gt;новую продажу&lt;/div&gt;" style="html=1;whiteSpace=wrap;" vertex="1" parent="1">
          <mxGeometry x="-195" y="420" width="110" height="50" as="geometry" />
        </mxCell>
        <mxCell id="ZcSVCY-HChu_1TqKnKob-33" value="" style="rounded=0;whiteSpace=wrap;html=1;" vertex="1" parent="1">
          <mxGeometry x="-500" y="320" width="240" height="1470" as="geometry" />
        </mxCell>
        <mxCell id="ZcSVCY-HChu_1TqKnKob-18" value="" style="endArrow=none;html=1;rounded=0;" edge="1" parent="1">
          <mxGeometry width="50" height="50" relative="1" as="geometry">
            <mxPoint x="1180" y="380" as="sourcePoint" />
            <mxPoint x="-500" y="380" as="targetPoint" />
          </mxGeometry>
        </mxCell>
        <mxCell id="ZcSVCY-HChu_1TqKnKob-35" value="Система" style="text;html=1;align=center;verticalAlign=middle;whiteSpace=wrap;rounded=0;" vertex="1" parent="1">
          <mxGeometry x="-413" y="340" width="60" height="30" as="geometry" />
        </mxCell>
        <mxCell id="ZcSVCY-HChu_1TqKnKob-93" style="edgeStyle=orthogonalEdgeStyle;rounded=0;orthogonalLoop=1;jettySize=auto;html=1;exitX=0.5;exitY=1;exitDx=0;exitDy=0;entryX=0.75;entryY=0;entryDx=0;entryDy=0;" edge="1" parent="1" source="ZcSVCY-HChu_1TqKnKob-37" target="ZcSVCY-HChu_1TqKnKob-88">
          <mxGeometry relative="1" as="geometry" />
        </mxCell>
        <mxCell id="ZcSVCY-HChu_1TqKnKob-37" value="Система записывает наименование товара" style="html=1;whiteSpace=wrap;" vertex="1" parent="1">
          <mxGeometry x="-399" y="510" width="124.5" height="40" as="geometry" />
        </mxCell>
        <mxCell id="ZcSVCY-HChu_1TqKnKob-51" style="edgeStyle=orthogonalEdgeStyle;rounded=0;orthogonalLoop=1;jettySize=auto;html=1;exitX=0.5;exitY=1;exitDx=0;exitDy=0;entryX=0.5;entryY=0;entryDx=0;entryDy=0;" edge="1" parent="1" source="ZcSVCY-HChu_1TqKnKob-40" target="ZcSVCY-HChu_1TqKnKob-50">
          <mxGeometry relative="1" as="geometry" />
        </mxCell>
        <mxCell id="ZcSVCY-HChu_1TqKnKob-96" style="edgeStyle=orthogonalEdgeStyle;rounded=0;orthogonalLoop=1;jettySize=auto;html=1;exitX=1;exitY=1;exitDx=0;exitDy=0;" edge="1" parent="1" source="ZcSVCY-HChu_1TqKnKob-40">
          <mxGeometry relative="1" as="geometry">
            <mxPoint x="-207" y="580" as="targetPoint" />
            <Array as="points">
              <mxPoint x="-250" y="733" />
              <mxPoint x="-250" y="580" />
              <mxPoint x="-208" y="580" />
            </Array>
          </mxGeometry>
        </mxCell>
        <mxCell id="ZcSVCY-HChu_1TqKnKob-40" value="" style="rhombus;whiteSpace=wrap;html=1;" vertex="1" parent="1">
          <mxGeometry x="-394" y="710" width="30" height="30" as="geometry" />
        </mxCell>
        <mxCell id="ZcSVCY-HChu_1TqKnKob-46" value="&lt;font style=&quot;font-size: 10px;&quot;&gt;еще остались непробитые товары?&lt;/font&gt;" style="text;html=1;align=center;verticalAlign=middle;whiteSpace=wrap;rounded=0;" vertex="1" parent="1">
          <mxGeometry x="-364.5" y="700" width="88" height="30" as="geometry" />
        </mxCell>
        <mxCell id="ZcSVCY-HChu_1TqKnKob-53" style="edgeStyle=orthogonalEdgeStyle;rounded=0;orthogonalLoop=1;jettySize=auto;html=1;exitX=1;exitY=0.5;exitDx=0;exitDy=0;" edge="1" parent="1" source="ZcSVCY-HChu_1TqKnKob-50" target="ZcSVCY-HChu_1TqKnKob-52">
          <mxGeometry relative="1" as="geometry" />
        </mxCell>
        <mxCell id="ZcSVCY-HChu_1TqKnKob-50" value=" Система вычисляет общую стоимость покупки с налогом" style="html=1;whiteSpace=wrap;" vertex="1" parent="1">
          <mxGeometry x="-433" y="810" width="108" height="60" as="geometry" />
        </mxCell>
        <mxCell id="ZcSVCY-HChu_1TqKnKob-52" value="Кассир сообщает покупателю общую стоимость и предлагает оплатить покупку" style="html=1;whiteSpace=wrap;" vertex="1" parent="1">
          <mxGeometry x="-212.5" y="602.5" width="145" height="75" as="geometry" />
        </mxCell>
        <mxCell id="ZcSVCY-HChu_1TqKnKob-98" style="edgeStyle=orthogonalEdgeStyle;rounded=0;orthogonalLoop=1;jettySize=auto;html=1;exitX=0.5;exitY=1;exitDx=0;exitDy=0;entryX=1;entryY=0.5;entryDx=0;entryDy=0;" edge="1" parent="1" source="ZcSVCY-HChu_1TqKnKob-54" target="ZcSVCY-HChu_1TqKnKob-56">
          <mxGeometry relative="1" as="geometry">
            <Array as="points">
              <mxPoint x="275" y="780" />
              <mxPoint x="50" y="780" />
              <mxPoint x="50" y="925" />
            </Array>
          </mxGeometry>
        </mxCell>
        <mxCell id="ZcSVCY-HChu_1TqKnKob-54" value="Покупатель оплачивает покупку" style="html=1;whiteSpace=wrap;" vertex="1" parent="1">
          <mxGeometry x="220" y="760" width="110" height="50" as="geometry" />
        </mxCell>
        <mxCell id="ZcSVCY-HChu_1TqKnKob-59" style="edgeStyle=orthogonalEdgeStyle;rounded=0;orthogonalLoop=1;jettySize=auto;html=1;exitX=0.5;exitY=1;exitDx=0;exitDy=0;entryX=0.5;entryY=0;entryDx=0;entryDy=0;" edge="1" parent="1" source="ZcSVCY-HChu_1TqKnKob-56">
          <mxGeometry relative="1" as="geometry">
            <mxPoint x="-379" y="980" as="targetPoint" />
          </mxGeometry>
        </mxCell>
        <mxCell id="ZcSVCY-HChu_1TqKnKob-56" value="система обрабатывает платеж" style="html=1;whiteSpace=wrap;" vertex="1" parent="1">
          <mxGeometry x="-431" y="900" width="110" height="50" as="geometry" />
        </mxCell>
        <mxCell id="ZcSVCY-HChu_1TqKnKob-61" style="edgeStyle=orthogonalEdgeStyle;rounded=0;orthogonalLoop=1;jettySize=auto;html=1;exitX=0.5;exitY=1;exitDx=0;exitDy=0;" edge="1" parent="1" target="ZcSVCY-HChu_1TqKnKob-60">
          <mxGeometry relative="1" as="geometry">
            <mxPoint x="-379" y="1050" as="sourcePoint" />
          </mxGeometry>
        </mxCell>
        <mxCell id="ZcSVCY-HChu_1TqKnKob-58" value="Система регистрирует продажу и отправляет информацию о ней внешней бухгалтерской системе" style="html=1;whiteSpace=wrap;" vertex="1" parent="1">
          <mxGeometry x="-450" y="980" width="145" height="70" as="geometry" />
        </mxCell>
        <mxCell id="ZcSVCY-HChu_1TqKnKob-99" style="edgeStyle=orthogonalEdgeStyle;rounded=0;orthogonalLoop=1;jettySize=auto;html=1;exitX=1;exitY=0.5;exitDx=0;exitDy=0;entryX=0.004;entryY=0.118;entryDx=0;entryDy=0;entryPerimeter=0;" edge="1" parent="1" source="ZcSVCY-HChu_1TqKnKob-60" target="ZcSVCY-HChu_1TqKnKob-62">
          <mxGeometry relative="1" as="geometry" />
        </mxCell>
        <mxCell id="ZcSVCY-HChu_1TqKnKob-60" value=" Система выдает товарный чек" style="html=1;whiteSpace=wrap;" vertex="1" parent="1">
          <mxGeometry x="-434" y="1090" width="110" height="50" as="geometry" />
        </mxCell>
        <mxCell id="ZcSVCY-HChu_1TqKnKob-103" style="edgeStyle=orthogonalEdgeStyle;rounded=0;orthogonalLoop=1;jettySize=auto;html=1;exitX=0.5;exitY=1;exitDx=0;exitDy=0;entryX=0;entryY=0.5;entryDx=0;entryDy=0;" edge="1" parent="1" source="ZcSVCY-HChu_1TqKnKob-62" target="ZcSVCY-HChu_1TqKnKob-100">
          <mxGeometry relative="1" as="geometry" />
        </mxCell>
        <mxCell id="ZcSVCY-HChu_1TqKnKob-62" value="Покупатель покидает магазин с чеком и товарами" style="html=1;whiteSpace=wrap;" vertex="1" parent="1">
          <mxGeometry x="225" y="1110" width="100" height="50" as="geometry" />
        </mxCell>
        <mxCell id="ZcSVCY-HChu_1TqKnKob-89" style="edgeStyle=orthogonalEdgeStyle;rounded=0;orthogonalLoop=1;jettySize=auto;html=1;exitX=0.5;exitY=1;exitDx=0;exitDy=0;entryX=0;entryY=0.75;entryDx=0;entryDy=0;" edge="1" parent="1" source="ZcSVCY-HChu_1TqKnKob-66" target="ZcSVCY-HChu_1TqKnKob-88">
          <mxGeometry relative="1" as="geometry">
            <Array as="points">
              <mxPoint x="-490" y="490" />
              <mxPoint x="-490" y="601" />
            </Array>
          </mxGeometry>
        </mxCell>
        <mxCell id="ZcSVCY-HChu_1TqKnKob-66" value="система выдает его описание" style="html=1;whiteSpace=wrap;" vertex="1" parent="1">
          <mxGeometry x="-498.5" y="450" width="85.5" height="40" as="geometry" />
        </mxCell>
        <mxCell id="ZcSVCY-HChu_1TqKnKob-92" style="edgeStyle=orthogonalEdgeStyle;rounded=0;orthogonalLoop=1;jettySize=auto;html=1;exitX=1;exitY=1;exitDx=0;exitDy=0;entryX=1;entryY=0.5;entryDx=0;entryDy=0;" edge="1" parent="1" source="ZcSVCY-HChu_1TqKnKob-67" target="ZcSVCY-HChu_1TqKnKob-88">
          <mxGeometry relative="1" as="geometry">
            <Array as="points">
              <mxPoint x="-270" y="486" />
              <mxPoint x="-270" y="597" />
            </Array>
          </mxGeometry>
        </mxCell>
        <mxCell id="ZcSVCY-HChu_1TqKnKob-67" value="система выдает&amp;nbsp;цену" style="html=1;whiteSpace=wrap;" vertex="1" parent="1">
          <mxGeometry x="-353" y="453.75" width="65" height="32.5" as="geometry" />
        </mxCell>
        <mxCell id="ZcSVCY-HChu_1TqKnKob-68" value="система выдает&amp;nbsp;общую стоимость" style="html=1;whiteSpace=wrap;" vertex="1" parent="1">
          <mxGeometry x="-479" y="511.25" width="65" height="37.5" as="geometry" />
        </mxCell>
        <mxCell id="ZcSVCY-HChu_1TqKnKob-79" style="edgeStyle=orthogonalEdgeStyle;rounded=0;orthogonalLoop=1;jettySize=auto;html=1;exitX=1;exitY=0.5;exitDx=0;exitDy=0;entryX=1;entryY=0.5;entryDx=0;entryDy=0;" edge="1" parent="1" source="ZcSVCY-HChu_1TqKnKob-84" target="ZcSVCY-HChu_1TqKnKob-67">
          <mxGeometry relative="1" as="geometry">
            <mxPoint x="-305" y="405" as="sourcePoint" />
          </mxGeometry>
        </mxCell>
        <mxCell id="ZcSVCY-HChu_1TqKnKob-80" style="edgeStyle=orthogonalEdgeStyle;rounded=0;orthogonalLoop=1;jettySize=auto;html=1;exitX=0.691;exitY=0.894;exitDx=0;exitDy=0;entryX=0.25;entryY=0;entryDx=0;entryDy=0;exitPerimeter=0;" edge="1" parent="1" source="ZcSVCY-HChu_1TqKnKob-84" target="ZcSVCY-HChu_1TqKnKob-37">
          <mxGeometry relative="1" as="geometry">
            <mxPoint x="-345" y="405" as="sourcePoint" />
            <Array as="points">
              <mxPoint x="-367" y="430" />
            </Array>
          </mxGeometry>
        </mxCell>
        <mxCell id="ZcSVCY-HChu_1TqKnKob-77" style="edgeStyle=orthogonalEdgeStyle;rounded=0;orthogonalLoop=1;jettySize=auto;html=1;exitX=0;exitY=0.5;exitDx=0;exitDy=0;entryX=0.487;entryY=0.548;entryDx=0;entryDy=0;entryPerimeter=0;" edge="1" parent="1" source="ZcSVCY-HChu_1TqKnKob-24">
          <mxGeometry relative="1" as="geometry">
            <mxPoint x="-387.0799999999999" y="405.4799999999998" as="targetPoint" />
            <Array as="points">
              <mxPoint x="-208" y="390" />
              <mxPoint x="-387" y="390" />
            </Array>
          </mxGeometry>
        </mxCell>
        <mxCell id="ZcSVCY-HChu_1TqKnKob-85" style="edgeStyle=orthogonalEdgeStyle;rounded=0;orthogonalLoop=1;jettySize=auto;html=1;exitX=0.25;exitY=1;exitDx=0;exitDy=0;entryX=0.5;entryY=0;entryDx=0;entryDy=0;" edge="1" parent="1" source="ZcSVCY-HChu_1TqKnKob-84" target="ZcSVCY-HChu_1TqKnKob-66">
          <mxGeometry relative="1" as="geometry">
            <Array as="points">
              <mxPoint x="-440" y="420" />
              <mxPoint x="-440" y="440" />
              <mxPoint x="-456" y="440" />
            </Array>
          </mxGeometry>
        </mxCell>
        <mxCell id="ZcSVCY-HChu_1TqKnKob-97" style="edgeStyle=orthogonalEdgeStyle;rounded=0;orthogonalLoop=1;jettySize=auto;html=1;exitX=0.5;exitY=1;exitDx=0;exitDy=0;entryX=1;entryY=0.5;entryDx=0;entryDy=0;" edge="1" parent="1" source="ZcSVCY-HChu_1TqKnKob-84" target="ZcSVCY-HChu_1TqKnKob-68">
          <mxGeometry relative="1" as="geometry">
            <Array as="points">
              <mxPoint x="-400" y="420" />
              <mxPoint x="-400" y="530" />
            </Array>
          </mxGeometry>
        </mxCell>
        <mxCell id="ZcSVCY-HChu_1TqKnKob-84" value="" style="rounded=0;whiteSpace=wrap;html=1;strokeColor=default;fillColor=#000000;" vertex="1" parent="1">
          <mxGeometry x="-450" y="406" width="120" height="14" as="geometry" />
        </mxCell>
        <mxCell id="ZcSVCY-HChu_1TqKnKob-94" style="edgeStyle=orthogonalEdgeStyle;rounded=0;orthogonalLoop=1;jettySize=auto;html=1;exitX=0.5;exitY=1;exitDx=0;exitDy=0;entryX=0.5;entryY=0;entryDx=0;entryDy=0;" edge="1" parent="1" source="ZcSVCY-HChu_1TqKnKob-88" target="ZcSVCY-HChu_1TqKnKob-40">
          <mxGeometry relative="1" as="geometry">
            <Array as="points">
              <mxPoint x="-379" y="604" />
            </Array>
          </mxGeometry>
        </mxCell>
        <mxCell id="ZcSVCY-HChu_1TqKnKob-88" value="" style="rounded=0;whiteSpace=wrap;html=1;strokeColor=default;fillColor=#000000;" vertex="1" parent="1">
          <mxGeometry x="-445" y="590" width="120" height="14" as="geometry" />
        </mxCell>
        <mxCell id="ZcSVCY-HChu_1TqKnKob-90" style="edgeStyle=orthogonalEdgeStyle;rounded=0;orthogonalLoop=1;jettySize=auto;html=1;exitX=0.5;exitY=1;exitDx=0;exitDy=0;entryX=0.135;entryY=0.174;entryDx=0;entryDy=0;entryPerimeter=0;" edge="1" parent="1" source="ZcSVCY-HChu_1TqKnKob-68" target="ZcSVCY-HChu_1TqKnKob-88">
          <mxGeometry relative="1" as="geometry" />
        </mxCell>
        <mxCell id="ZcSVCY-HChu_1TqKnKob-100" value="" style="ellipse;html=1;shape=endState;fillColor=#000000;strokeColor=#ff0000;" vertex="1" parent="1">
          <mxGeometry x="320" y="1190" width="30" height="30" as="geometry" />
        </mxCell>
        <mxCell id="ZcSVCY-HChu_1TqKnKob-104" style="edgeStyle=orthogonalEdgeStyle;rounded=0;orthogonalLoop=1;jettySize=auto;html=1;exitX=0.5;exitY=1;exitDx=0;exitDy=0;entryX=1;entryY=0.5;entryDx=0;entryDy=0;" edge="1" parent="1" source="ZcSVCY-HChu_1TqKnKob-102" target="ZcSVCY-HChu_1TqKnKob-100">
          <mxGeometry relative="1" as="geometry" />
        </mxCell>
        <mxCell id="ZcSVCY-HChu_1TqKnKob-102" value="покупатель уходит ни с чем" style="html=1;whiteSpace=wrap;" vertex="1" parent="1">
          <mxGeometry x="350" y="1110" width="110" height="50" as="geometry" />
        </mxCell>
        <mxCell id="ZcSVCY-HChu_1TqKnKob-106" value="" style="edgeStyle=orthogonalEdgeStyle;rounded=0;orthogonalLoop=1;jettySize=auto;html=1;exitX=1;exitY=0.5;exitDx=0;exitDy=0;entryX=0;entryY=0.5;entryDx=0;entryDy=0;" edge="1" parent="1" source="ZcSVCY-HChu_1TqKnKob-52" target="ZcSVCY-HChu_1TqKnKob-105">
          <mxGeometry relative="1" as="geometry">
            <mxPoint x="-67" y="640" as="sourcePoint" />
            <mxPoint x="340" y="640" as="targetPoint" />
          </mxGeometry>
        </mxCell>
        <mxCell id="ZcSVCY-HChu_1TqKnKob-108" style="edgeStyle=orthogonalEdgeStyle;rounded=0;orthogonalLoop=1;jettySize=auto;html=1;exitX=0.5;exitY=1;exitDx=0;exitDy=0;entryX=0.25;entryY=0;entryDx=0;entryDy=0;" edge="1" parent="1" source="ZcSVCY-HChu_1TqKnKob-105" target="ZcSVCY-HChu_1TqKnKob-54">
          <mxGeometry relative="1" as="geometry" />
        </mxCell>
        <mxCell id="ZcSVCY-HChu_1TqKnKob-111" style="edgeStyle=orthogonalEdgeStyle;rounded=0;orthogonalLoop=1;jettySize=auto;html=1;exitX=1;exitY=0.5;exitDx=0;exitDy=0;entryX=0.5;entryY=0;entryDx=0;entryDy=0;" edge="1" parent="1" source="ZcSVCY-HChu_1TqKnKob-105" target="ZcSVCY-HChu_1TqKnKob-102">
          <mxGeometry relative="1" as="geometry" />
        </mxCell>
        <mxCell id="ZcSVCY-HChu_1TqKnKob-105" value="" style="rhombus;whiteSpace=wrap;html=1;" vertex="1" parent="1">
          <mxGeometry x="230" y="622.5" width="35" height="35" as="geometry" />
        </mxCell>
        <mxCell id="ZcSVCY-HChu_1TqKnKob-109" value="у покупателя есть деньги?" style="text;html=1;align=center;verticalAlign=middle;whiteSpace=wrap;rounded=0;" vertex="1" parent="1">
          <mxGeometry x="90" y="595" width="60" height="27.5" as="geometry" />
        </mxCell>
        <mxCell id="ZcSVCY-HChu_1TqKnKob-110" value="да" style="text;html=1;align=center;verticalAlign=middle;whiteSpace=wrap;rounded=0;" vertex="1" parent="1">
          <mxGeometry x="240" y="680" width="60" height="30" as="geometry" />
        </mxCell>
        <mxCell id="ZcSVCY-HChu_1TqKnKob-112" value="нет" style="text;html=1;align=center;verticalAlign=middle;whiteSpace=wrap;rounded=0;" vertex="1" parent="1">
          <mxGeometry x="350" y="680" width="60" height="30" as="geometry" />
        </mxCell>
      </root>
    </mxGraphModel>
  </diagram>
</mxfile>
